HIERARCHY
ROOT Hips
{
	OFFSET -0.001795 -0.223333 0.028219
	CHANNELS 6 Xposition Yposition Zposition Zrotation Yrotation Xrotation 
	JOINT LeftUpLeg
	{
		OFFSET 0.069520 -0.091406 -0.006815
		CHANNELS 3 Zrotation Yrotation Xrotation
		JOINT LeftLeg
		{
			OFFSET 0.034277 -0.375199 -0.004496
			CHANNELS 3 Zrotation Yrotation Xrotation
			JOINT LeftFoot
			{
				OFFSET -0.013596 -0.397961 -0.043693
				CHANNELS 3 Zrotation Yrotation Xrotation
				JOINT LeftToe
				{
					OFFSET 0.026358 -0.055791 0.119288
					CHANNELS 3 Zrotation Yrotation Xrotation
					End Site
					{
						OFFSET 0.000000 0.000000 0.000000
					}
				}
			}
		}
	}
	JOINT RightUpLeg
	{
		OFFSET -0.067670 -0.090522 -0.004320
		CHANNELS 3 Zrotation Yrotation Xrotation
		JOINT RightLeg
		{
			OFFSET -0.038290 -0.382569 -0.008850
			CHANNELS 3 Zrotation Yrotation Xrotation
			JOINT RightFoot
			{
				OFFSET 0.015774 -0.398415 -0.042312
				CHANNELS 3 Zrotation Yrotation Xrotation
				JOINT RightToe
				{
					OFFSET -0.025372 -0.048144 0.123348
					CHANNELS 3 Zrotation Yrotation Xrotation
					End Site
					{
						OFFSET 0.000000 0.000000 0.000000
					}
				}
			}
		}
	}
	JOINT Spine
	{
		OFFSET -0.002533 0.108963 -0.026696
		CHANNELS 3 Zrotation Yrotation Xrotation
		JOINT Spine1
		{
			OFFSET 0.005487 0.135180 0.001092
			CHANNELS 3 Zrotation Yrotation Xrotation
			JOINT Spine2
			{
				OFFSET 0.001457 0.052922 0.025425
				CHANNELS 3 Zrotation Yrotation Xrotation
				JOINT Neck
				{
					OFFSET -0.002778 0.213870 -0.042857
					CHANNELS 3 Zrotation Yrotation Xrotation
					JOINT Head
					{
						OFFSET 0.005152 0.064970 0.051349
						CHANNELS 3 Zrotation Yrotation Xrotation
						End Site
						{
							OFFSET 0.000000 0.000000 0.000000
						}
					}
				}
				JOINT LeftShoulder
				{
					OFFSET 0.078845 0.121749 -0.034090
					CHANNELS 3 Zrotation Yrotation Xrotation
					JOINT LeftArm
					{
						OFFSET 0.090977 0.030469 -0.008868
						CHANNELS 3 Zrotation Yrotation Xrotation
						JOINT LeftForeArm
						{
							OFFSET 0.259612 -0.012772 -0.027456
							CHANNELS 3 Zrotation Yrotation Xrotation
							JOINT LeftHand
							{
								OFFSET 0.249234 0.008986 -0.001171
								CHANNELS 3 Zrotation Yrotation Xrotation
								End Site
								{
									OFFSET 0.000000 0.000000 0.000000
								}
							}
						}
					}
				}
				JOINT RightShoulder
				{
					OFFSET -0.081759 0.118833 -0.038615
					CHANNELS 3 Zrotation Yrotation Xrotation
					JOINT RightArm
					{
						OFFSET -0.096012 0.032551 -0.009143
						CHANNELS 3 Zrotation Yrotation Xrotation
						JOINT RightForeArm
						{
							OFFSET -0.253742 -0.013329 -0.021401
							CHANNELS 3 Zrotation Yrotation Xrotation
							JOINT RightHand
							{
								OFFSET -0.255298 0.007772 -0.005559
								CHANNELS 3 Zrotation Yrotation Xrotation
								End Site
								{
									OFFSET 0.000000 0.000000 0.000000
								}
							}
						}
					}
				}
			}
		}
	}
}
MOTION
Frames: 16
Frame Time: 0.050000
0.000000 0.943796 0.000000 -0.237412 1.086411 2.040663 -2.381163 0.660094 5.542478 -0.957192 0.271397 -6.722932 5.386547 12.614981 7.323988 0.000000 0.000000 0.000000 -1.033583 0.006046 0.232142 0.928341 -0.047286 1.705021 -2.565181 -7.295889 2.454676 0.000000 0.000000 0.000000 6.432628 -0.155284 0.556860 -1.952086 1.036587 -12.698834 -3.319754 4.034730 19.146205 9.334605 -3.135642 -23.757560 0.000000 0.000000 0.000000 -6.295341 -10.595141 3.427891 -20.655059 -4.584321 -2.203129 15.027078 -8.079738 -0.838830 0.000000 0.000000 0.000000 10.914801 -0.253627 -0.125677 22.355673 4.788780 -2.389069 -12.541155 13.789677 -0.660708 0.000000 0.000000 0.000000 
0.000244 0.941909 0.001990 -0.295918 0.818725 2.172782 -2.313932 0.731595 6.213865 -0.806779 0.297584 -7.981200 5.967298 13.580396 7.203852 0.000000 0.000000 0.000000 -1.072705 0.028259 0.011288 0.409867 0.023627 1.896918 -2.776156 -7.822521 2.542959 0.000000 0.000000 0.000000 7.030170 -0.183874 0.685644 -2.281613 1.141689 -12.285314 -3.558185 5.863849 19.020025 10.283131 -3.063667 -25.815738 0.000000 0.000000 0.000000 -4.880764 -10.446522 3.247039 -20.089174 -4.782953 -2.052595 13.980309 -6.847136 -0.695381 0.000000 0.000000 0.000000 10.993855 -2.981139 -1.199086 22.571558 3.879011 -2.611458 -10.787704 13.716616 -0.443754 0.000000 0.000000 0.000000 
0.000371 0.940354 0.003858 -0.490873 0.519560 2.417108 -1.996029 0.702320 6.133428 -0.826103 0.290839 -7.634992 6.499775 14.348556 6.158722 0.000000 0.000000 0.000000 -1.131392 0.076294 -0.486774 0.674972 0.004506 2.283857 -1.933753 -5.428055 1.359614 0.000000 0.000000 0.000000 7.660536 -0.182586 0.494900 -2.742134 1.293579 -12.740155 -3.449756 6.436194 20.131994 10.300937 -3.100186 -25.512549 0.000000 0.000000 0.000000 -4.112656 -9.679765 2.979572 -20.098597 -3.473173 -2.240617 12.972229 -7.476692 -0.691436 0.000000 0.000000 0.000000 11.663909 -3.328816 -1.314862 21.216955 3.338658 -2.606079 -8.065415 12.708471 -0.186385 0.000000 0.000000 0.000000 
0.000411 0.939451 0.005912 -0.524007 0.255759 1.897046 -2.602986 0.842786 6.996036 -0.635665 0.274412 -7.277694 7.292840 15.625188 5.152056 0.000000 0.000000 0.000000 -1.093071 0.016239 0.151877 0.692814 0.010961 2.527704 -1.707384 -4.771695 1.078798 0.000000 0.000000 0.000000 7.834269 -0.183431 0.611387 -2.841925 1.324052 -12.772410 -3.354947 6.795768 21.261036 9.922460 -2.543025 -27.514002 0.000000 0.000000 0.000000 -3.759462 -9.448502 2.910611 -21.664791 -2.528395 -2.588298 13.821634 -7.416394 -0.753575 0.000000 0.000000 0.000000 11.811863 -3.631331 -1.413837 21.704871 2.326813 -2.846904 -6.877648 13.040761 -0.095492 0.000000 0.000000 0.000000 
0.000313 0.938860 0.007693 -0.504470 0.217207 1.697095 -2.561453 0.897548 7.515021 -0.513764 0.269882 -7.301786 6.915387 14.890462 4.601336 0.000000 0.000000 0.000000 -0.942180 0.009505 0.173093 0.372393 0.052510 2.538481 -1.728847 -4.847859 1.139562 0.000000 0.000000 0.000000 7.526891 -0.191633 0.798385 -2.268995 1.125405 -12.585023 -3.727060 6.995985 21.100392 10.763272 -3.110957 -26.738563 0.000000 0.000000 0.000000 -4.715026 -9.004626 2.669264 -22.504882 -2.209109 -2.710135 11.833740 -9.383340 -0.758985 0.000000 0.000000 0.000000 13.222728 -4.225314 -1.697561 21.966652 2.052076 -2.943514 -5.025545 13.754467 0.059787 0.000000 0.000000 0.000000 
0.000140 0.938344 0.009087 -0.423271 0.247726 1.689712 -3.197655 0.935527 7.391229 0.053173 0.221166 -6.611498 6.950831 14.831415 3.580388 0.000000 0.000000 0.000000 -1.260069 0.043483 -0.106946 0.355051 0.076899 3.149175 -1.829273 -4.888311 0.603715 0.000000 0.000000 0.000000 7.403649 -0.212920 1.025012 -2.110926 1.067594 -11.840626 -3.876422 6.265196 20.885822 10.185469 -2.808478 -27.172940 0.000000 0.000000 0.000000 -6.107435 -8.203086 2.334437 -25.421327 -2.073394 -3.120954 10.359363 -11.622488 -0.744012 0.000000 0.000000 0.000000 14.459597 -4.260781 -1.851950 24.397780 2.322151 -3.177943 -3.832130 14.740669 0.180360 0.000000 0.000000 0.000000 
0.000064 0.937741 0.010034 -0.447354 0.007200 1.789135 -3.109944 0.896443 7.102436 -0.308769 0.240064 -6.608070 7.210111 15.311903 3.553187 0.000000 0.000000 0.000000 -1.133457 0.052690 -0.236710 0.189731 0.096437 3.065013 -1.709502 -4.412255 0.162308 0.000000 0.000000 0.000000 7.366961 -0.288687 1.736036 -1.807753 0.948336 -11.128365 -4.220732 5.986113 19.660010 10.237084 -2.868318 -27.059666 0.000000 0.000000 0.000000 -8.965082 -8.182619 2.154395 -28.453087 -0.905027 -3.654476 7.817090 -15.088747 -0.603342 0.000000 0.000000 0.000000 17.015389 -4.480528 -2.154862 27.803297 2.577520 -3.463364 -2.380012 16.979913 0.397177 0.000000 0.000000 0.000000 
0.000302 0.936541 0.010945 -0.584859 -0.319860 2.152760 -3.251034 0.780355 6.012027 -0.393546 0.218803 -5.749829 7.782392 16.328629 3.023095 0.000000 0.000000 0.000000 -0.792362 0.141602 -1.273893 -0.377171 0.229308 4.381511 -1.757194 -4.140889 -0.771405 0.000000 0.000000 0.000000 7.596152 -0.353138 2.196415 -1.698948 0.893218 -10.342955 -4.619525 5.471451 18.837674 10.203598 -2.681523 -28.440083 0.000000 0.000000 0.000000 -12.524804 -7.716654 1.788806 -33.069867 -0.133086 -4.420170 4.466276 -19.826508 -0.180112 0.000000 0.000000 0.000000 19.934761 -4.210914 -2.309932 32.767101 3.093382 -3.825811 -1.866809 19.098733 0.549653 0.000000 0.000000 0.000000 
0.000858 0.934994 0.012400 -0.487866 -0.227669 2.272317 -3.313585 0.668093 5.043648 -0.532891 0.193036 -4.594867 7.842279 16.385178 2.382680 0.000000 0.000000 0.000000 -0.984673 0.176696 -1.617483 -0.355627 0.249230 4.921245 -2.296183 -5.214924 -1.557108 0.000000 0.000000 0.000000 7.683800 -0.428480 2.827804 -1.802235 0.929618 -9.850168 -4.890817 5.738367 17.663198 10.118856 -2.505083 -28.655403 0.000000 0.000000 0.000000 -15.808222 -8.855165 1.981316 -38.026284 -0.231772 -4.947053 0.512486 -22.936689 0.585518 0.000000 0.000000 0.000000 23.225456 -4.414738 -2.524246 39.317732 2.060480 -4.760753 -1.079869 21.778375 0.849482 0.000000 0.000000 0.000000 
0.001806 0.932786 0.014646 -0.576659 0.001919 2.163024 -3.124859 0.627402 4.813802 -0.378114 0.157566 -3.796416 8.194580 16.954798 1.352321 0.000000 0.000000 0.000000 -0.739969 0.198019 -1.886626 -0.512275 0.333341 6.301634 -2.775058 -5.980804 -2.869745 0.000000 0.000000 0.000000 8.038701 -0.518240 3.516589 -2.186454 1.077142 -9.423561 -5.098931 4.580780 17.137444 10.148448 -2.454025 -29.805698 0.000000 0.000000 0.000000 -18.722150 -8.497546 1.829439 -43.359643 -1.001773 -5.434720 -3.477565 -24.907732 1.579040 0.000000 0.000000 0.000000 25.419444 -3.924188 -2.689137 45.337379 2.194749 -5.203639 0.829834 22.507775 1.228123 0.000000 0.000000 0.000000 
0.003099 0.930851 0.017777 -0.649019 -0.211497 1.671150 -3.280374 0.627357 4.768504 -0.427529 0.113350 -2.202764 8.040015 16.586467 0.277930 0.000000 0.000000 0.000000 -0.875106 0.222074 -2.140477 -0.240855 0.375437 8.280764 -3.111702 -6.575828 -3.659235 0.000000 0.000000 0.000000 8.132508 -0.591663 4.268105 -2.418678 1.164352 -10.180801 -5.235391 4.847644 17.643198 10.390234 -2.432868 -30.709276 0.000000 0.000000 0.000000 -20.750202 -9.760768 2.371981 -48.123686 -0.128753 -6.425599 -7.653998 -26.955839 2.732667 0.000000 0.000000 0.000000 27.023925 -3.673459 -2.567037 49.889319 1.685390 -5.912226 4.197854 23.285160 1.947386 0.000000 0.000000 0.000000 
0.004413 0.928835 0.021449 -0.752408 -0.095460 1.592489 -3.215124 0.615508 4.709336 -0.348847 0.070748 -1.054057 7.606099 15.551065 -1.342616 0.000000 0.000000 0.000000 -0.987893 0.327123 -3.279984 0.361004 0.396779 11.761179 -3.793702 -7.897488 -5.300238 0.000000 0.000000 0.000000 8.059198 -0.633616 4.687823 -2.898198 1.344910 -10.379847 -5.166785 4.212145 18.044841 10.273263 -2.332121 -31.554849 0.000000 0.000000 0.000000 -21.335671 -9.715496 2.511977 -52.107920 -0.338678 -7.004792 -10.710644 -27.088213 3.542746 0.000000 0.000000 0.000000 27.533260 -3.130408 -2.440500 53.557161 1.744725 -6.211664 6.751458 24.709158 2.623142 0.000000 0.000000 0.000000 
0.005811 0.927470 0.025429 -0.984990 0.246684 1.613400 -2.616719 0.564690 4.575451 -0.936209 0.101752 -0.008968 7.247499 14.598283 -2.712035 0.000000 0.000000 0.000000 -0.681968 0.569114 -5.841132 0.110331 0.670566 17.582196 -4.364027 -9.353548 -5.997696 0.000000 0.000000 0.000000 7.890489 -0.653204 4.922149 -2.949527 1.368926 -11.204639 -5.386104 3.668626 19.175945 10.077913 -2.247025 -32.076486 0.000000 0.000000 0.000000 -21.319164 -9.910569 2.785891 -53.542196 -0.267450 -7.392912 -13.126009 -28.634164 4.427151 0.000000 0.000000 0.000000 27.420447 -2.473636 -2.092241 55.490098 1.352885 -6.631836 7.871047 26.222368 3.076524 0.000000 0.000000 0.000000 
0.006885 0.926355 0.029869 -0.979412 0.536173 1.526599 -2.662031 0.560677 4.527730 -0.890518 0.062408 1.268831 6.932935 13.756146 -3.604907 0.000000 0.000000 0.000000 -0.382639 0.902282 -9.218755 -0.166658 1.006647 24.240053 -4.522284 -9.857016 -5.959043 0.000000 0.000000 0.000000 7.494150 -0.700221 5.578619 -3.246036 1.479454 -11.812750 -5.544922 3.462988 20.558494 10.365561 -2.307058 -32.944513 0.000000 0.000000 0.000000 -20.991281 -10.332932 3.109672 -54.067340 -0.658579 -7.445893 -13.912182 -28.627442 4.659151 0.000000 0.000000 0.000000 27.975952 -2.487586 -2.105191 56.374739 1.645119 -6.728583 8.958868 27.588142 3.565534 0.000000 0.000000 0.000000 
0.007403 0.925912 0.035748 -1.073870 1.276243 0.762806 -2.116612 0.646351 5.669819 -1.603686 0.135067 1.734567 6.914806 13.516073 -4.180105 0.000000 0.000000 0.000000 0.008152 1.184784 -11.879871 -0.035371 1.184110 31.811957 -5.086309 -11.720099 -5.184659 0.000000 0.000000 0.000000 6.861230 -0.826834 7.330489 -3.238348 1.494193 -12.624147 -5.651623 2.917929 21.686895 10.819288 -2.417463 -34.047939 0.000000 0.000000 0.000000 -20.894812 -10.412815 3.238590 -52.968792 -0.859133 -7.330915 -14.448657 -30.124207 5.086743 0.000000 0.000000 0.000000 27.767910 -2.950962 -2.406558 55.908763 1.575790 -6.814634 10.372478 29.377155 4.221473 0.000000 0.000000 0.000000 
0.007202 0.926635 0.044346 -1.642865 2.380334 0.359338 -1.339700 0.691322 6.745908 -1.318871 0.087416 2.109858 5.975059 11.279192 -4.295884 0.000000 0.000000 0.000000 0.026731 1.541122 -15.648943 1.390985 0.550740 38.234726 -5.115384 -12.069345 -4.156621 0.000000 0.000000 0.000000 6.531064 -0.944608 8.718361 -3.000713 1.436609 -13.672139 -5.506108 1.750995 22.942381 10.815972 -2.438835 -34.750577 0.000000 0.000000 0.000000 -21.416907 -10.442586 3.464605 -51.509882 -1.726014 -6.916694 -14.470216 -30.585474 5.230138 0.000000 0.000000 0.000000 27.751377 -3.596987 -2.990828 55.278175 0.433932 -7.331429 12.012989 30.989590 4.933248 0.000000 0.000000 0.000000 
